<?xml version="1.0" encoding="UTF-8" standalone="no"?>
<!-- Created with Inkscape (http://www.inkscape.org/) -->

<svg
   xmlns:dc="http://purl.org/dc/elements/1.1/"
   xmlns:cc="http://creativecommons.org/ns#"
   xmlns:rdf="http://www.w3.org/1999/02/22-rdf-syntax-ns#"
   xmlns:svg="http://www.w3.org/2000/svg"
   xmlns="http://www.w3.org/2000/svg"
   xmlns:sodipodi="http://sodipodi.sourceforge.net/DTD/sodipodi-0.dtd"
   xmlns:inkscape="http://www.inkscape.org/namespaces/inkscape"
   width="305.29297"
   height="81.755432"
   id="svg2"
   version="1.1"
   inkscape:version="0.91 r13725"
   sodipodi:docname="name_small.svg">
  <defs
     id="defs4" />
  <sodipodi:namedview
     id="base"
     pagecolor="#ffffff"
     bordercolor="#666666"
     borderopacity="1.0"
     inkscape:pageopacity="0.0"
     inkscape:pageshadow="2"
     inkscape:zoom="2.8284271"
     inkscape:cx="151.01788"
     inkscape:cy="79.035827"
     inkscape:document-units="px"
     inkscape:current-layer="layer2"
     showgrid="false"
     fit-margin-top="0"
     fit-margin-left="0"
     fit-margin-right="0"
     fit-margin-bottom="0"
     inkscape:window-width="1920"
     inkscape:window-height="1016"
     inkscape:window-x="1920"
     inkscape:window-y="27"
     inkscape:window-maximized="1" />
  <metadata
     id="metadata7">
    <rdf:RDF>
      <cc:Work
         rdf:about="">
        <dc:format>image/svg+xml</dc:format>
        <dc:type
           rdf:resource="http://purl.org/dc/dcmitype/StillImage" />
        <dc:title></dc:title>
      </cc:Work>
    </rdf:RDF>
  </metadata>
  <g
     inkscape:groupmode="layer"
     id="layer2"
     inkscape:label="Layer 2"
     transform="translate(0,1.3911497e-6)" />
  <g
     inkscape:label="Layer 1"
     inkscape:groupmode="layer"
     id="layer1"
     transform="translate(-54.101376,-216.03159)">
    <path
       inkscape:connector-curvature="0"
       id="path3035"
       style="font-style:normal;font-variant:normal;font-weight:bold;font-stretch:normal;font-size:40px;line-height:125%;font-family:'Open Sans';-inkscape-font-specification:'Open Sans Bold';letter-spacing:0px;word-spacing:0px;fill:#ffffff;fill-opacity:1;stroke:none"
       d="m 66.191219,247.2706 -6.875,-22.40234 -0.175781,0 c 0.247387,4.55731 0.371085,7.59767 0.371094,9.12109 l 0,13.28125 -5.410156,0 0,-28.55469 8.242187,0 6.757813,21.83594 0.117187,0 7.167969,-21.83594 8.242187,0 0,28.55469 -5.644531,0 0,-13.51563 c -2.8e-5,-0.638 0.0065,-1.37368 0.01953,-2.20703 0.02601,-0.83331 0.117159,-3.04685 0.273438,-6.64062 l -0.175781,0 -7.363282,22.36328 -5.546875,0" />
    <path
       inkscape:connector-curvature="0"
       id="path3037"
       style="font-style:normal;font-variant:normal;font-weight:bold;font-stretch:normal;font-size:40px;line-height:125%;font-family:'Open Sans';-inkscape-font-specification:'Open Sans Bold';letter-spacing:0px;word-spacing:0px;fill:#ffffff;fill-opacity:1;stroke:none"
       d="m 97.324032,247.2706 -5.957031,0 0,-21.83594 5.957031,0 0,21.83594"
       sodipodi:nodetypes="ccccc" />
    <path
       inkscape:connector-curvature="0"
       id="path3039"
       style="font-style:normal;font-variant:normal;font-weight:bold;font-stretch:normal;font-size:40px;line-height:125%;font-family:'Open Sans';-inkscape-font-specification:'Open Sans Bold';letter-spacing:0px;word-spacing:0px;fill:#ffffff;fill-opacity:1;stroke:none"
       d="m 117.42169,247.2706 -1.15235,-2.96875 -0.15625,0 c -1.00261,1.26302 -2.03777,2.14193 -3.10546,2.63672 -1.0547,0.48177 -2.43491,0.72265 -4.14063,0.72265 -2.09636,0 -3.75,-0.59895 -4.96094,-1.79687 -1.19792,-1.19791 -1.79687,-2.90364 -1.79687,-5.11719 0,-2.3177 0.80729,-4.02343 2.42187,-5.11719 1.6276,-1.10675 4.07552,-1.71873 7.34375,-1.83593 l 3.78907,-0.11719 0,-0.95703 c -2e-5,-2.21353 -1.13283,-3.3203 -3.39844,-3.32031 -1.7448,1e-5 -3.79558,0.52736 -6.15235,1.58203 l -1.97265,-4.02344 c 2.51301,-1.31508 5.29947,-1.97263 8.35937,-1.97266 2.92968,3e-5 5.17577,0.63805 6.73828,1.91407 1.56248,1.27606 2.34373,3.21616 2.34375,5.82031 l 0,14.55078 -4.16015,0 m -1.75781,-10.11719 -2.30469,0.0781 c -1.73178,0.0521 -3.02085,0.36459 -3.86719,0.9375 -0.84636,0.57292 -1.26954,1.44532 -1.26953,2.61718 -1e-5,1.6797 0.96353,2.51954 2.89062,2.51954 1.3802,0 2.48046,-0.39714 3.30079,-1.19141 0.83331,-0.79427 1.24998,-1.84895 1.25,-3.16406 l 0,-1.79688" />
    <path
       inkscape:connector-curvature="0"
       id="path3041"
       style="font-style:normal;font-variant:normal;font-weight:bold;font-stretch:normal;font-size:40px;line-height:125%;font-family:'Open Sans';-inkscape-font-specification:'Open Sans Bold';letter-spacing:0px;word-spacing:0px;fill:#ffffff;fill-opacity:1;stroke:none"
       d="m 163.88653,247.2706 -7.69531,0 -12.42188,-21.60156 -0.17578,0 c 0.24739,3.81512 0.37109,6.53647 0.3711,8.16406 l 0,13.4375 -5.41016,0 0,-28.55469 7.63672,0 12.40234,21.38672 0.13672,0 c -0.19533,-3.71093 -0.29299,-6.33462 -0.29297,-7.87109 l 0,-13.51563 5.44922,0 0,28.55469" />
    <path
       inkscape:connector-curvature="0"
       id="path3043"
       style="font-style:normal;font-variant:normal;font-weight:bold;font-stretch:normal;font-size:40px;line-height:125%;font-family:'Open Sans';-inkscape-font-specification:'Open Sans Bold';letter-spacing:0px;word-spacing:0px;fill:#ffffff;fill-opacity:1;stroke:none"
       d="m 175.33184,236.31357 c 0,2.16147 0.35156,3.79558 1.05469,4.90234 0.71614,1.10678 1.87499,1.66016 3.47656,1.66016 1.58853,0 2.72785,-0.54687 3.41797,-1.64063 0.70311,-1.10676 1.05467,-2.74738 1.05469,-4.92187 -2e-5,-2.16145 -0.35158,-3.78254 -1.05469,-4.86328 -0.70314,-1.08072 -1.85548,-1.62108 -3.45703,-1.6211 -1.58855,2e-5 -2.73438,0.54038 -3.4375,1.6211 -0.70313,1.06772 -1.05469,2.68881 -1.05469,4.86328 m 15.09766,0 c -2e-5,3.55469 -0.93752,6.33464 -2.8125,8.33984 -1.87502,2.00521 -4.48569,3.00781 -7.83203,3.00781 -2.09637,0 -3.94532,-0.45572 -5.54688,-1.36718 -1.60156,-0.92448 -2.83203,-2.24609 -3.6914,-3.96485 -0.85938,-1.71874 -1.28907,-3.72395 -1.28906,-6.01562 -1e-5,-3.5677 0.93098,-6.34113 2.79296,-8.32031 1.86198,-1.97915 4.47916,-2.96873 7.85157,-2.96875 2.09634,2e-5 3.94529,0.45575 5.54687,1.36718 1.60154,0.91148 2.83201,2.22007 3.69141,3.92578 0.85935,1.70575 1.28904,3.70444 1.28906,5.9961" />
    <path
       inkscape:connector-curvature="0"
       id="path3045"
       style="font-style:normal;font-variant:normal;font-weight:bold;font-stretch:normal;font-size:40px;line-height:125%;font-family:'Open Sans';-inkscape-font-specification:'Open Sans Bold';letter-spacing:0px;word-spacing:0px;fill:#ffffff;fill-opacity:1;stroke:none"
       d="m 207.53888,225.02451 c 0.80727,2e-5 1.47784,0.0586 2.01171,0.17578 l -0.44921,5.58593 c -0.48179,-0.13019 -1.06773,-0.19529 -1.75782,-0.19531 -1.90105,2e-5 -3.38543,0.4883 -4.45312,1.46485 -1.0547,0.97657 -1.58204,2.34376 -1.58203,4.10156 l 0,11.11328 -5.95703,0 0,-21.83594 4.51171,0 0.87891,3.67188 0.29297,0 c 0.67707,-1.22394 1.58853,-2.20701 2.73437,-2.94922 1.15885,-0.75519 2.41535,-1.13279 3.76954,-1.13281" />
    <path
       inkscape:connector-curvature="0"
       id="path3047"
       style="font-style:normal;font-variant:normal;font-weight:bold;font-stretch:normal;font-size:40px;line-height:125%;font-family:'Open Sans';-inkscape-font-specification:'Open Sans Bold';letter-spacing:0px;word-spacing:0px;fill:#ffffff;fill-opacity:1;stroke:none"
       d="m 220.46856,247.66122 c -2.56511,0 -4.58334,-0.99609 -6.05468,-2.98828 -1.45834,-1.99218 -2.18751,-4.75259 -2.1875,-8.28125 -1e-5,-3.58071 0.74218,-6.36717 2.22656,-8.35937 1.49739,-2.00519 3.55468,-3.00779 6.17187,-3.00781 2.74739,2e-5 4.84374,1.06773 6.28907,3.20312 l 0.19531,0 c -0.2995,-1.62758 -0.44924,-3.0794 -0.44922,-4.35547 l 0,-6.99219 5.97656,0 0,30.39063 -4.57031,0 -1.15234,-2.83203 -0.25391,0 c -1.35418,2.14844 -3.41798,3.22265 -6.19141,3.22265 m 2.08985,-4.74609 c 1.52342,0 2.6367,-0.4427 3.33984,-1.32812 0.71613,-0.88541 1.10675,-2.38932 1.17188,-4.51172 l 0,-0.64453 c -2e-5,-2.34374 -0.3646,-4.02343 -1.09375,-5.03907 -0.71617,-1.0156 -1.88804,-1.52342 -3.51563,-1.52343 -1.32814,1e-5 -2.36329,0.56642 -3.10547,1.69921 -0.72917,1.11981 -1.09376,2.75392 -1.09375,4.90235 -1e-5,2.14844 0.37109,3.76303 1.11328,4.84375 0.74218,1.06771 1.80338,1.60156 3.1836,1.60156" />
    <path
       inkscape:connector-curvature="0"
       id="path3049"
       style="font-style:normal;font-variant:normal;font-weight:bold;font-stretch:normal;font-size:40px;line-height:125%;font-family:'Open Sans';-inkscape-font-specification:'Open Sans Bold';letter-spacing:0px;word-spacing:0px;fill:#ffffff;fill-opacity:1;stroke:none"
       d="m 247.90997,229.26279 c -1.26303,1e-5 -2.25261,0.40366 -2.96875,1.21093 -0.71615,0.79429 -1.12631,1.9271 -1.23047,3.39844 l 8.35938,0 c -0.0261,-1.47134 -0.41018,-2.60415 -1.15235,-3.39844 -0.7422,-0.80727 -1.7448,-1.21092 -3.00781,-1.21093 m 0.83984,18.39843 c -3.51563,0 -6.26302,-0.97005 -8.24218,-2.91015 -1.97917,-1.9401 -2.96876,-4.68749 -2.96875,-8.24219 -1e-5,-3.65884 0.91145,-6.48436 2.73437,-8.47656 1.83593,-2.00519 4.36848,-3.00779 7.59766,-3.00781 3.08592,2e-5 5.48826,0.87892 7.20703,2.63671 1.71873,1.75783 2.5781,4.18622 2.57812,7.28516 l 0,2.89063 -14.08203,0 c 0.0651,1.69271 0.5664,3.01432 1.50391,3.96484 0.93749,0.95052 2.25259,1.42578 3.94531,1.42578 1.31509,0 2.55858,-0.13671 3.73047,-0.41016 1.17186,-0.27343 2.39581,-0.70963 3.67187,-1.30859 l 0,4.60938 c -1.04168,0.52083 -2.15496,0.90494 -3.33984,1.15234 -1.18491,0.26042 -2.63022,0.39062 -4.33594,0.39062" />
    <path
       inkscape:connector-curvature="0"
       id="path3051"
       style="font-style:normal;font-variant:normal;font-weight:bold;font-stretch:normal;font-size:40px;line-height:125%;font-family:'Open Sans';-inkscape-font-specification:'Open Sans Bold';letter-spacing:0px;word-spacing:0px;fill:#ffffff;fill-opacity:1;stroke:none"
       d="m 282.69513,247.2706 -5.95704,0 0,-12.75391 c -10e-6,-1.5755 -0.27996,-2.75389 -0.83984,-3.53515 -0.55991,-0.79426 -1.45184,-1.19139 -2.67578,-1.19141 -1.66668,2e-5 -2.87111,0.55991 -3.61328,1.67969 -0.7422,1.10678 -1.11329,2.94923 -1.11328,5.52734 l 0,10.27344 -5.95703,0 0,-21.83594 4.55078,0 0.80078,2.79297 0.33203,0 c 0.66405,-1.05467 1.57551,-1.84894 2.73437,-2.38281 1.17187,-0.54685 2.49999,-0.82029 3.98438,-0.82031 2.53904,2e-5 4.46613,0.69012 5.78125,2.07031 1.31508,1.3672 1.97263,3.34637 1.97266,5.9375 l 0,14.23828" />
    <path
       inkscape:connector-curvature="0"
       id="path3053"
       style="font-style:normal;font-variant:normal;font-weight:bold;font-stretch:normal;font-size:40px;line-height:125%;font-family:'Open Sans';-inkscape-font-specification:'Open Sans Bold';letter-spacing:0px;word-spacing:0px;fill:#ffffff;fill-opacity:1;stroke:none"
       d="m 298.06622,242.91513 c 1.04165,0 2.29165,-0.22786 3.75,-0.68359 l 0,4.43359 c -1.48439,0.66406 -3.30731,0.99609 -5.46875,0.99609 -2.38282,0 -4.1211,-0.59895 -5.21484,-1.79687 -1.08074,-1.21094 -1.6211,-3.02083 -1.6211,-5.42969 l 0,-10.52734 -2.85156,0 0,-2.51953 3.28125,-1.99219 1.71875,-4.60938 3.80859,0 0,4.64844 6.11328,0 0,4.47266 -6.11328,0 0,10.52734 c -1e-5,0.84636 0.23437,1.47136 0.70313,1.875 0.48176,0.40365 1.11327,0.60547 1.89453,0.60547" />
    <path
       inkscape:connector-curvature="0"
       id="path3055"
       style="font-style:normal;font-variant:normal;font-weight:bold;font-stretch:normal;font-size:40px;line-height:125%;font-family:'Open Sans';-inkscape-font-specification:'Open Sans Bold';letter-spacing:0px;word-spacing:0px;fill:#ffffff;fill-opacity:1;stroke:none"
       d="m 310.95684,236.31357 c 0,2.16147 0.35156,3.79558 1.05469,4.90234 0.71614,1.10678 1.87499,1.66016 3.47656,1.66016 1.58853,0 2.72785,-0.54687 3.41797,-1.64063 0.70311,-1.10676 1.05467,-2.74738 1.05469,-4.92187 -2e-5,-2.16145 -0.35158,-3.78254 -1.05469,-4.86328 -0.70314,-1.08072 -1.85548,-1.62108 -3.45703,-1.6211 -1.58855,2e-5 -2.73438,0.54038 -3.4375,1.6211 -0.70313,1.06772 -1.05469,2.68881 -1.05469,4.86328 m 15.09766,0 c -2e-5,3.55469 -0.93752,6.33464 -2.8125,8.33984 -1.87502,2.00521 -4.48569,3.00781 -7.83203,3.00781 -2.09637,0 -3.94532,-0.45572 -5.54688,-1.36718 -1.60156,-0.92448 -2.83203,-2.24609 -3.6914,-3.96485 -0.85938,-1.71874 -1.28907,-3.72395 -1.28906,-6.01562 -1e-5,-3.5677 0.93098,-6.34113 2.79296,-8.32031 1.86198,-1.97915 4.47916,-2.96873 7.85157,-2.96875 2.09634,2e-5 3.94529,0.45575 5.54687,1.36718 1.60154,0.91148 2.83201,2.22007 3.69141,3.92578 0.85935,1.70575 1.28904,3.70444 1.28906,5.9961" />
    <path
       inkscape:connector-curvature="0"
       id="path3057"
       style="font-style:normal;font-variant:normal;font-weight:bold;font-stretch:normal;font-size:40px;line-height:125%;font-family:'Open Sans';-inkscape-font-specification:'Open Sans Bold';letter-spacing:0px;word-spacing:0px;fill:#ffffff;fill-opacity:1;stroke:none"
       d="m 343.04669,229.90732 -5.15625,0 0,17.36328 -5.95703,0 0,-17.36328 -3.28125,0 0,-2.8711 3.28125,-1.60156 0,-1.60156 c -10e-6,-2.48695 0.61197,-4.30336 1.83593,-5.44922 1.22396,-1.1458 3.18359,-1.71872 5.87891,-1.71875 2.05728,3e-5 3.8867,0.30602 5.48828,0.91797 l -1.52344,4.375 c -1.19793,-0.37758 -2.3047,-0.56638 -3.32031,-0.56641 -0.84636,3e-5 -1.45834,0.25393 -1.83594,0.76172 -0.37761,0.49482 -0.56641,1.13284 -0.5664,1.91406 l 0,1.36719 5.15625,0 0,4.47266" />
    <path
       inkscape:connector-curvature="0"
       id="path3059"
       style="font-style:normal;font-variant:normal;font-weight:bold;font-stretch:normal;font-size:40px;line-height:125%;font-family:'Open Sans';-inkscape-font-specification:'Open Sans Bold';letter-spacing:0px;word-spacing:0px;fill:#ffffff;fill-opacity:1;stroke:none"
       d="m 355.64434,242.91513 c 1.04166,0 2.29166,-0.22786 3.75,-0.68359 l 0,4.43359 c -1.48439,0.66406 -3.3073,0.99609 -5.46875,0.99609 -2.38282,0 -4.1211,-0.59895 -5.21484,-1.79687 -1.08073,-1.21094 -1.6211,-3.02083 -1.62109,-5.42969 l 0,-10.52734 -2.85157,0 0,-2.51953 3.28125,-1.99219 1.71875,-4.60938 3.8086,0 0,4.64844 6.11328,0 0,4.47266 -6.11328,0 0,10.52734 c -1e-5,0.84636 0.23436,1.47136 0.70312,1.875 0.48176,0.40365 1.11327,0.60547 1.89453,0.60547" />
    <g
       id="g3126"
       transform="matrix(0.84552631,0,0,-0.84552631,-546.13487,831.86803)">
      <path
         id="path3128"
         d="m 757.55263,720.58354 q -0.1314,0 -0.22238,0.091 l -3.15385,3.04264 q -0.0505,0.0404 -0.139,0.13141 -0.0884,0.0909 -0.28051,0.33107 -0.19206,0.24007 -0.34369,0.49278 -0.15163,0.25272 -0.2704,0.61157 -0.11877,0.35885 -0.11877,0.69748 0,1.11193 0.64189,1.73866 0.64189,0.62672 1.77403,0.62672 0.31337,0 0.63937,-0.10866 0.32599,-0.10868 0.6065,-0.29314 0.28052,-0.1845 0.48268,-0.34623 0.20218,-0.16173 0.38413,-0.34369 0.18195,0.18196 0.38412,0.34369 0.20217,0.16173 0.48268,0.34623 0.28051,0.18446 0.60651,0.29314 0.32599,0.10866 0.63936,0.10866 1.13215,0 1.77403,-0.62672 0.6419,-0.62673 0.6419,-1.73866 0,-1.11699 -1.15742,-2.27441 l -3.1488,-3.03254 q -0.091,-0.091 -0.22238,-0.091"
         inkscape:connector-curvature="0"
         style="fill:#ffffff" />
    </g>
    <text
       sodipodi:linespacing="125%"
       id="text4225"
       y="286.17764"
       x="98.294746"
       style="font-style:normal;font-weight:normal;font-size:40px;line-height:125%;font-family:sans-serif;letter-spacing:0px;word-spacing:0px;fill:#000000;fill-opacity:1;stroke:none;stroke-width:1px;stroke-linecap:butt;stroke-linejoin:miter;stroke-opacity:1"
       xml:space="preserve"><tspan
         style="font-style:normal;font-variant:normal;font-weight:bold;font-stretch:normal;font-family:'Open Sans';-inkscape-font-specification:'Open Sans Bold';fill:#ffffff;fill-opacity:1"
         y="286.17764"
         x="98.294746"
         id="tspan4227"
         sodipodi:role="line">Imperatori</tspan></text>
  </g>
</svg>
